# xmcd
# Track frame offsets:
# 150
# 15870
# 31030
# 49066
# 63920
# 80502
# 93451
# 107081
# 118557
# 129843
# 153042
# 179814
# 195152
# 207688
# 224248
# 237289
# 244277
# 251918
# 268011
#
# Disc length: 3786 seconds
# Revision: 0
# Processed by: cddbd v1.4PL0 Copyright (c) Steve Scherf et al.
# Submitted via: VisiTrax 2.9.5.181 - For more info visit www.synapsa.com
#
DISCID=090ec813
DTITLE=Mary Duff - Live At East Kirkby Aviation Center
DYEAR=2000
DGENRE=
TTITLE0=I'm From The Country
TTITLE1=Heartaches By The Number
TTITLE2=Deep Water
TTITLE3=Love Someone Like Me
TTITLE4=Lough Sheelin And My Home
TTITLE5=San Antonio Rose
TTITLE6=Michael
TTITLE7=Everybody's Somebody's Fool
TTITLE8=Lipstick On Your Collar
TTITLE9=Red Is The Rose
TTITLE10=Hey Lord It's Me
TTITLE11=Tom Duff: CRONIN'S HORNPIPE - THE BOYS OF BLUE HILL
TTITLE12=Lili Marlene White Cliffs Of Dover Medley:
TTITLE13=1. YOURS
TTITLE14=2. WHEN THE LIGHTS GO ON AGAIN
TTITLE15=3. I'LL PRAY FOR YOU
TTITLE16=NOW IS THE HOUR
TTITLE17=We'll Meet Again
TTITLE18=Track 10
EXTD=
EXTT0=
EXTT1=
EXTT2=
EXTT3=
EXTT4=
EXTT5=
EXTT6=
EXTT7=
EXTT8=
EXTT9=
EXTT10=
EXTT11=
EXTT12=
EXTT13=
EXTT14=
EXTT15=
EXTT16=
EXTT17=
EXTT18=
PLAYORDER=
